<mxfile host="app.diagrams.net" modified="2022-03-24T18:24:04.000Z" agent="5.0 (Windows)" etag="iE2BTiLtmMORo6yzTALT" version="17.2.1" type="github">
  <diagram id="k2Cw8jNf8Gb9BS49O4o2" name="Page-1">
    <mxGraphModel dx="1042" dy="580" grid="1" gridSize="10" guides="1" tooltips="1" connect="1" arrows="1" fold="1" page="1" pageScale="1" pageWidth="1100" pageHeight="1700" background="#ffffff" math="0" shadow="0">
      <root>
        <mxCell id="0" />
        <mxCell id="1" parent="0" />
        <mxCell id="yGydTZoRVIb-HmRXxx-I-32" style="edgeStyle=orthogonalEdgeStyle;rounded=0;orthogonalLoop=1;jettySize=auto;html=1;" edge="1" parent="1" source="yGydTZoRVIb-HmRXxx-I-1" target="yGydTZoRVIb-HmRXxx-I-2">
          <mxGeometry relative="1" as="geometry" />
        </mxCell>
        <mxCell id="yGydTZoRVIb-HmRXxx-I-1" value="Start" style="ellipse;whiteSpace=wrap;html=1;" vertex="1" parent="1">
          <mxGeometry x="250" y="40" width="120" height="80" as="geometry" />
        </mxCell>
        <mxCell id="yGydTZoRVIb-HmRXxx-I-33" style="edgeStyle=orthogonalEdgeStyle;rounded=0;orthogonalLoop=1;jettySize=auto;html=1;" edge="1" parent="1" source="yGydTZoRVIb-HmRXxx-I-2" target="yGydTZoRVIb-HmRXxx-I-8">
          <mxGeometry relative="1" as="geometry" />
        </mxCell>
        <mxCell id="yGydTZoRVIb-HmRXxx-I-2" value="cout &amp;lt;&amp;lt; &quot;Enter n - &quot;" style="shape=parallelogram;perimeter=parallelogramPerimeter;whiteSpace=wrap;html=1;fixedSize=1;" vertex="1" parent="1">
          <mxGeometry x="230" y="140" width="160" height="40" as="geometry" />
        </mxCell>
        <mxCell id="yGydTZoRVIb-HmRXxx-I-35" style="edgeStyle=orthogonalEdgeStyle;rounded=0;orthogonalLoop=1;jettySize=auto;html=1;entryX=0.5;entryY=0;entryDx=0;entryDy=0;" edge="1" parent="1" source="yGydTZoRVIb-HmRXxx-I-4" target="yGydTZoRVIb-HmRXxx-I-5">
          <mxGeometry relative="1" as="geometry" />
        </mxCell>
        <mxCell id="yGydTZoRVIb-HmRXxx-I-4" value="srand(time(NULL))" style="rounded=0;whiteSpace=wrap;html=1;" vertex="1" parent="1">
          <mxGeometry x="250" y="260" width="120" height="40" as="geometry" />
        </mxCell>
        <mxCell id="yGydTZoRVIb-HmRXxx-I-36" style="edgeStyle=orthogonalEdgeStyle;rounded=0;orthogonalLoop=1;jettySize=auto;html=1;entryX=0.5;entryY=0;entryDx=0;entryDy=0;" edge="1" parent="1" source="yGydTZoRVIb-HmRXxx-I-5" target="yGydTZoRVIb-HmRXxx-I-6">
          <mxGeometry relative="1" as="geometry" />
        </mxCell>
        <mxCell id="yGydTZoRVIb-HmRXxx-I-5" value="left = 0" style="rounded=0;whiteSpace=wrap;html=1;" vertex="1" parent="1">
          <mxGeometry x="250" y="320" width="120" height="40" as="geometry" />
        </mxCell>
        <mxCell id="yGydTZoRVIb-HmRXxx-I-37" style="edgeStyle=orthogonalEdgeStyle;rounded=0;orthogonalLoop=1;jettySize=auto;html=1;" edge="1" parent="1" source="yGydTZoRVIb-HmRXxx-I-6" target="yGydTZoRVIb-HmRXxx-I-9">
          <mxGeometry relative="1" as="geometry" />
        </mxCell>
        <mxCell id="yGydTZoRVIb-HmRXxx-I-6" value="right = n - 1" style="rounded=0;whiteSpace=wrap;html=1;" vertex="1" parent="1">
          <mxGeometry x="250" y="380" width="120" height="40" as="geometry" />
        </mxCell>
        <mxCell id="yGydTZoRVIb-HmRXxx-I-34" style="edgeStyle=orthogonalEdgeStyle;rounded=0;orthogonalLoop=1;jettySize=auto;html=1;" edge="1" parent="1" source="yGydTZoRVIb-HmRXxx-I-8" target="yGydTZoRVIb-HmRXxx-I-4">
          <mxGeometry relative="1" as="geometry" />
        </mxCell>
        <mxCell id="yGydTZoRVIb-HmRXxx-I-8" value="cin &amp;gt;&amp;gt; n" style="shape=parallelogram;perimeter=parallelogramPerimeter;whiteSpace=wrap;html=1;fixedSize=1;" vertex="1" parent="1">
          <mxGeometry x="255" y="200" width="110" height="40" as="geometry" />
        </mxCell>
        <mxCell id="yGydTZoRVIb-HmRXxx-I-38" style="edgeStyle=orthogonalEdgeStyle;rounded=0;orthogonalLoop=1;jettySize=auto;html=1;" edge="1" parent="1" source="yGydTZoRVIb-HmRXxx-I-9" target="yGydTZoRVIb-HmRXxx-I-11">
          <mxGeometry relative="1" as="geometry" />
        </mxCell>
        <mxCell id="yGydTZoRVIb-HmRXxx-I-9" value="cout &amp;lt;&amp;lt; &quot;Before massiv: &quot;" style="shape=parallelogram;perimeter=parallelogramPerimeter;whiteSpace=wrap;html=1;fixedSize=1;" vertex="1" parent="1">
          <mxGeometry x="215" y="440" width="190" height="40" as="geometry" />
        </mxCell>
        <mxCell id="yGydTZoRVIb-HmRXxx-I-43" style="edgeStyle=orthogonalEdgeStyle;rounded=0;orthogonalLoop=1;jettySize=auto;html=1;entryX=0.5;entryY=0;entryDx=0;entryDy=0;" edge="1" parent="1" source="yGydTZoRVIb-HmRXxx-I-11" target="yGydTZoRVIb-HmRXxx-I-14">
          <mxGeometry relative="1" as="geometry">
            <Array as="points">
              <mxPoint x="390" y="515" />
              <mxPoint x="390" y="660" />
              <mxPoint x="310" y="660" />
            </Array>
          </mxGeometry>
        </mxCell>
        <mxCell id="yGydTZoRVIb-HmRXxx-I-11" value="i = 0; i &amp;lt; n; i++" style="shape=hexagon;perimeter=hexagonPerimeter2;whiteSpace=wrap;html=1;fixedSize=1;" vertex="1" parent="1">
          <mxGeometry x="250" y="500" width="120" height="30" as="geometry" />
        </mxCell>
        <mxCell id="yGydTZoRVIb-HmRXxx-I-40" style="edgeStyle=orthogonalEdgeStyle;rounded=0;orthogonalLoop=1;jettySize=auto;html=1;" edge="1" parent="1" source="yGydTZoRVIb-HmRXxx-I-12" target="yGydTZoRVIb-HmRXxx-I-13">
          <mxGeometry relative="1" as="geometry" />
        </mxCell>
        <mxCell id="yGydTZoRVIb-HmRXxx-I-12" value="a[i] = rand() % 41 - 19" style="rounded=0;whiteSpace=wrap;html=1;" vertex="1" parent="1">
          <mxGeometry x="250" y="550" width="120" height="30" as="geometry" />
        </mxCell>
        <mxCell id="yGydTZoRVIb-HmRXxx-I-41" style="edgeStyle=orthogonalEdgeStyle;rounded=0;orthogonalLoop=1;jettySize=auto;html=1;entryX=0;entryY=0.5;entryDx=0;entryDy=0;" edge="1" parent="1" source="yGydTZoRVIb-HmRXxx-I-13" target="yGydTZoRVIb-HmRXxx-I-11">
          <mxGeometry relative="1" as="geometry">
            <Array as="points">
              <mxPoint x="310" y="640" />
              <mxPoint x="230" y="640" />
              <mxPoint x="230" y="515" />
            </Array>
          </mxGeometry>
        </mxCell>
        <mxCell id="yGydTZoRVIb-HmRXxx-I-13" value="cout &amp;lt;&amp;lt; a[i] &amp;lt;&amp;lt;&amp;nbsp; &quot; &quot;" style="shape=parallelogram;perimeter=parallelogramPerimeter;whiteSpace=wrap;html=1;fixedSize=1;" vertex="1" parent="1">
          <mxGeometry x="250" y="600" width="120" height="30" as="geometry" />
        </mxCell>
        <mxCell id="yGydTZoRVIb-HmRXxx-I-45" style="edgeStyle=orthogonalEdgeStyle;rounded=0;orthogonalLoop=1;jettySize=auto;html=1;" edge="1" parent="1" source="yGydTZoRVIb-HmRXxx-I-14" target="yGydTZoRVIb-HmRXxx-I-15">
          <mxGeometry relative="1" as="geometry" />
        </mxCell>
        <mxCell id="yGydTZoRVIb-HmRXxx-I-61" style="edgeStyle=orthogonalEdgeStyle;rounded=0;orthogonalLoop=1;jettySize=auto;html=1;entryX=0.5;entryY=0;entryDx=0;entryDy=0;" edge="1" parent="1" source="yGydTZoRVIb-HmRXxx-I-14" target="yGydTZoRVIb-HmRXxx-I-23">
          <mxGeometry relative="1" as="geometry">
            <Array as="points">
              <mxPoint x="420" y="715" />
              <mxPoint x="420" y="1270" />
              <mxPoint x="303" y="1270" />
            </Array>
          </mxGeometry>
        </mxCell>
        <mxCell id="yGydTZoRVIb-HmRXxx-I-14" value="left &amp;lt; right" style="rhombus;whiteSpace=wrap;html=1;" vertex="1" parent="1">
          <mxGeometry x="270" y="690" width="80" height="50" as="geometry" />
        </mxCell>
        <mxCell id="yGydTZoRVIb-HmRXxx-I-46" style="edgeStyle=orthogonalEdgeStyle;rounded=0;orthogonalLoop=1;jettySize=auto;html=1;" edge="1" parent="1" source="yGydTZoRVIb-HmRXxx-I-15" target="yGydTZoRVIb-HmRXxx-I-16">
          <mxGeometry relative="1" as="geometry" />
        </mxCell>
        <mxCell id="yGydTZoRVIb-HmRXxx-I-51" style="edgeStyle=orthogonalEdgeStyle;rounded=0;orthogonalLoop=1;jettySize=auto;html=1;entryX=0.5;entryY=0;entryDx=0;entryDy=0;" edge="1" parent="1" source="yGydTZoRVIb-HmRXxx-I-15" target="yGydTZoRVIb-HmRXxx-I-18">
          <mxGeometry relative="1" as="geometry">
            <Array as="points">
              <mxPoint x="390" y="775" />
              <mxPoint x="390" y="940" />
              <mxPoint x="310" y="940" />
            </Array>
          </mxGeometry>
        </mxCell>
        <mxCell id="yGydTZoRVIb-HmRXxx-I-15" value="i = left; i &amp;lt; right; i++" style="shape=hexagon;perimeter=hexagonPerimeter2;whiteSpace=wrap;html=1;fixedSize=1;" vertex="1" parent="1">
          <mxGeometry x="250" y="760" width="120" height="30" as="geometry" />
        </mxCell>
        <mxCell id="yGydTZoRVIb-HmRXxx-I-47" style="edgeStyle=orthogonalEdgeStyle;rounded=0;orthogonalLoop=1;jettySize=auto;html=1;entryX=0.5;entryY=0;entryDx=0;entryDy=0;" edge="1" parent="1" source="yGydTZoRVIb-HmRXxx-I-16" target="yGydTZoRVIb-HmRXxx-I-17">
          <mxGeometry relative="1" as="geometry" />
        </mxCell>
        <mxCell id="yGydTZoRVIb-HmRXxx-I-50" style="edgeStyle=orthogonalEdgeStyle;rounded=0;orthogonalLoop=1;jettySize=auto;html=1;" edge="1" parent="1" source="yGydTZoRVIb-HmRXxx-I-16">
          <mxGeometry relative="1" as="geometry">
            <mxPoint x="310" y="920" as="targetPoint" />
            <Array as="points">
              <mxPoint x="380" y="835" />
              <mxPoint x="380" y="920" />
            </Array>
          </mxGeometry>
        </mxCell>
        <mxCell id="yGydTZoRVIb-HmRXxx-I-16" value="a[i] &amp;gt; a[i + 1]" style="rhombus;whiteSpace=wrap;html=1;" vertex="1" parent="1">
          <mxGeometry x="265" y="810" width="90" height="50" as="geometry" />
        </mxCell>
        <mxCell id="yGydTZoRVIb-HmRXxx-I-48" style="edgeStyle=orthogonalEdgeStyle;rounded=0;orthogonalLoop=1;jettySize=auto;html=1;entryX=0;entryY=0.5;entryDx=0;entryDy=0;" edge="1" parent="1" source="yGydTZoRVIb-HmRXxx-I-17" target="yGydTZoRVIb-HmRXxx-I-15">
          <mxGeometry relative="1" as="geometry">
            <Array as="points">
              <mxPoint x="310" y="930" />
              <mxPoint x="230" y="930" />
              <mxPoint x="230" y="775" />
            </Array>
          </mxGeometry>
        </mxCell>
        <mxCell id="yGydTZoRVIb-HmRXxx-I-17" value="swap(a[i], a[i + 1])" style="rounded=0;whiteSpace=wrap;html=1;" vertex="1" parent="1">
          <mxGeometry x="250" y="880" width="120" height="30" as="geometry" />
        </mxCell>
        <mxCell id="yGydTZoRVIb-HmRXxx-I-53" style="edgeStyle=orthogonalEdgeStyle;rounded=0;orthogonalLoop=1;jettySize=auto;html=1;entryX=0.5;entryY=0;entryDx=0;entryDy=0;" edge="1" parent="1" source="yGydTZoRVIb-HmRXxx-I-18" target="yGydTZoRVIb-HmRXxx-I-19">
          <mxGeometry relative="1" as="geometry" />
        </mxCell>
        <mxCell id="yGydTZoRVIb-HmRXxx-I-18" value="right--" style="rounded=0;whiteSpace=wrap;html=1;" vertex="1" parent="1">
          <mxGeometry x="270" y="960" width="80" height="40" as="geometry" />
        </mxCell>
        <mxCell id="yGydTZoRVIb-HmRXxx-I-54" style="edgeStyle=orthogonalEdgeStyle;rounded=0;orthogonalLoop=1;jettySize=auto;html=1;" edge="1" parent="1" source="yGydTZoRVIb-HmRXxx-I-19" target="yGydTZoRVIb-HmRXxx-I-20">
          <mxGeometry relative="1" as="geometry" />
        </mxCell>
        <mxCell id="yGydTZoRVIb-HmRXxx-I-59" style="edgeStyle=orthogonalEdgeStyle;rounded=0;orthogonalLoop=1;jettySize=auto;html=1;entryX=0.5;entryY=0;entryDx=0;entryDy=0;" edge="1" parent="1" source="yGydTZoRVIb-HmRXxx-I-19" target="yGydTZoRVIb-HmRXxx-I-22">
          <mxGeometry relative="1" as="geometry">
            <Array as="points">
              <mxPoint x="400" y="1035" />
              <mxPoint x="400" y="1200" />
              <mxPoint x="305" y="1200" />
            </Array>
          </mxGeometry>
        </mxCell>
        <mxCell id="yGydTZoRVIb-HmRXxx-I-19" value="i = right; i &amp;gt; left; i--" style="shape=hexagon;perimeter=hexagonPerimeter2;whiteSpace=wrap;html=1;fixedSize=1;" vertex="1" parent="1">
          <mxGeometry x="250" y="1020" width="120" height="30" as="geometry" />
        </mxCell>
        <mxCell id="yGydTZoRVIb-HmRXxx-I-55" style="edgeStyle=orthogonalEdgeStyle;rounded=0;orthogonalLoop=1;jettySize=auto;html=1;" edge="1" parent="1" source="yGydTZoRVIb-HmRXxx-I-20" target="yGydTZoRVIb-HmRXxx-I-21">
          <mxGeometry relative="1" as="geometry" />
        </mxCell>
        <mxCell id="yGydTZoRVIb-HmRXxx-I-57" style="edgeStyle=orthogonalEdgeStyle;rounded=0;orthogonalLoop=1;jettySize=auto;html=1;" edge="1" parent="1" source="yGydTZoRVIb-HmRXxx-I-20">
          <mxGeometry relative="1" as="geometry">
            <mxPoint x="310" y="1180" as="targetPoint" />
            <Array as="points">
              <mxPoint x="380" y="1095" />
              <mxPoint x="380" y="1180" />
            </Array>
          </mxGeometry>
        </mxCell>
        <mxCell id="yGydTZoRVIb-HmRXxx-I-20" value="a[i] &amp;lt; a[i - 1]" style="rhombus;whiteSpace=wrap;html=1;" vertex="1" parent="1">
          <mxGeometry x="265" y="1070" width="90" height="50" as="geometry" />
        </mxCell>
        <mxCell id="yGydTZoRVIb-HmRXxx-I-56" style="edgeStyle=orthogonalEdgeStyle;rounded=0;orthogonalLoop=1;jettySize=auto;html=1;entryX=0;entryY=0.5;entryDx=0;entryDy=0;" edge="1" parent="1" source="yGydTZoRVIb-HmRXxx-I-21" target="yGydTZoRVIb-HmRXxx-I-19">
          <mxGeometry relative="1" as="geometry">
            <Array as="points">
              <mxPoint x="310" y="1190" />
              <mxPoint x="230" y="1190" />
              <mxPoint x="230" y="1035" />
            </Array>
          </mxGeometry>
        </mxCell>
        <mxCell id="yGydTZoRVIb-HmRXxx-I-21" value="swap(a[i], a[i - 1]" style="rounded=0;whiteSpace=wrap;html=1;" vertex="1" parent="1">
          <mxGeometry x="250" y="1140" width="120" height="30" as="geometry" />
        </mxCell>
        <mxCell id="yGydTZoRVIb-HmRXxx-I-60" style="edgeStyle=orthogonalEdgeStyle;rounded=0;orthogonalLoop=1;jettySize=auto;html=1;" edge="1" parent="1" source="yGydTZoRVIb-HmRXxx-I-22">
          <mxGeometry relative="1" as="geometry">
            <mxPoint x="310" y="670" as="targetPoint" />
            <Array as="points">
              <mxPoint x="305" y="1260" />
              <mxPoint x="190" y="1260" />
              <mxPoint x="190" y="670" />
              <mxPoint x="310" y="670" />
            </Array>
          </mxGeometry>
        </mxCell>
        <mxCell id="yGydTZoRVIb-HmRXxx-I-22" value="left++" style="rounded=0;whiteSpace=wrap;html=1;" vertex="1" parent="1">
          <mxGeometry x="250" y="1220" width="110" height="30" as="geometry" />
        </mxCell>
        <mxCell id="yGydTZoRVIb-HmRXxx-I-62" style="edgeStyle=orthogonalEdgeStyle;rounded=0;orthogonalLoop=1;jettySize=auto;html=1;" edge="1" parent="1" source="yGydTZoRVIb-HmRXxx-I-23" target="yGydTZoRVIb-HmRXxx-I-25">
          <mxGeometry relative="1" as="geometry" />
        </mxCell>
        <mxCell id="yGydTZoRVIb-HmRXxx-I-23" value="cout &amp;lt;&amp;lt; endl" style="shape=parallelogram;perimeter=parallelogramPerimeter;whiteSpace=wrap;html=1;fixedSize=1;" vertex="1" parent="1">
          <mxGeometry x="242.5" y="1290" width="120" height="30" as="geometry" />
        </mxCell>
        <mxCell id="yGydTZoRVIb-HmRXxx-I-63" style="edgeStyle=orthogonalEdgeStyle;rounded=0;orthogonalLoop=1;jettySize=auto;html=1;entryX=0.5;entryY=0;entryDx=0;entryDy=0;" edge="1" parent="1" source="yGydTZoRVIb-HmRXxx-I-25" target="yGydTZoRVIb-HmRXxx-I-27">
          <mxGeometry relative="1" as="geometry">
            <Array as="points">
              <mxPoint x="300" y="1380" />
              <mxPoint x="300" y="1380" />
            </Array>
          </mxGeometry>
        </mxCell>
        <mxCell id="yGydTZoRVIb-HmRXxx-I-25" value="cout &amp;lt;&amp;lt; &quot;After massiv: &quot;" style="shape=parallelogram;perimeter=parallelogramPerimeter;whiteSpace=wrap;html=1;fixedSize=1;" vertex="1" parent="1">
          <mxGeometry x="225" y="1340" width="155" height="30" as="geometry" />
        </mxCell>
        <mxCell id="yGydTZoRVIb-HmRXxx-I-67" style="edgeStyle=orthogonalEdgeStyle;rounded=0;orthogonalLoop=1;jettySize=auto;html=1;entryX=0;entryY=0.5;entryDx=0;entryDy=0;" edge="1" parent="1" source="yGydTZoRVIb-HmRXxx-I-26" target="yGydTZoRVIb-HmRXxx-I-27">
          <mxGeometry relative="1" as="geometry">
            <Array as="points">
              <mxPoint x="297" y="1480" />
              <mxPoint x="220" y="1480" />
              <mxPoint x="220" y="1405" />
            </Array>
          </mxGeometry>
        </mxCell>
        <mxCell id="yGydTZoRVIb-HmRXxx-I-26" value="cout &amp;lt;&amp;lt; a[i] &amp;lt;&amp;lt;&amp;nbsp; &quot; &quot;" style="shape=parallelogram;perimeter=parallelogramPerimeter;whiteSpace=wrap;html=1;fixedSize=1;" vertex="1" parent="1">
          <mxGeometry x="235" y="1440" width="125" height="30" as="geometry" />
        </mxCell>
        <mxCell id="yGydTZoRVIb-HmRXxx-I-66" style="edgeStyle=orthogonalEdgeStyle;rounded=0;orthogonalLoop=1;jettySize=auto;html=1;entryX=0.5;entryY=0;entryDx=0;entryDy=0;" edge="1" parent="1" source="yGydTZoRVIb-HmRXxx-I-27" target="yGydTZoRVIb-HmRXxx-I-26">
          <mxGeometry relative="1" as="geometry">
            <Array as="points">
              <mxPoint x="298" y="1440" />
            </Array>
          </mxGeometry>
        </mxCell>
        <mxCell id="yGydTZoRVIb-HmRXxx-I-68" style="edgeStyle=orthogonalEdgeStyle;rounded=0;orthogonalLoop=1;jettySize=auto;html=1;" edge="1" parent="1" source="yGydTZoRVIb-HmRXxx-I-27" target="yGydTZoRVIb-HmRXxx-I-28">
          <mxGeometry relative="1" as="geometry">
            <Array as="points">
              <mxPoint x="380" y="1405" />
              <mxPoint x="380" y="1490" />
              <mxPoint x="297" y="1490" />
            </Array>
          </mxGeometry>
        </mxCell>
        <mxCell id="yGydTZoRVIb-HmRXxx-I-27" value="i = 0; i &amp;lt; n; i++" style="shape=hexagon;perimeter=hexagonPerimeter2;whiteSpace=wrap;html=1;fixedSize=1;" vertex="1" parent="1">
          <mxGeometry x="240" y="1390" width="120" height="30" as="geometry" />
        </mxCell>
        <mxCell id="yGydTZoRVIb-HmRXxx-I-65" style="edgeStyle=orthogonalEdgeStyle;rounded=0;orthogonalLoop=1;jettySize=auto;html=1;entryX=0.5;entryY=0;entryDx=0;entryDy=0;" edge="1" parent="1" source="yGydTZoRVIb-HmRXxx-I-28" target="yGydTZoRVIb-HmRXxx-I-29">
          <mxGeometry relative="1" as="geometry" />
        </mxCell>
        <mxCell id="yGydTZoRVIb-HmRXxx-I-28" value="cout &amp;lt;&amp;lt; endl" style="shape=parallelogram;perimeter=parallelogramPerimeter;whiteSpace=wrap;html=1;fixedSize=1;" vertex="1" parent="1">
          <mxGeometry x="237.5" y="1510" width="120" height="30" as="geometry" />
        </mxCell>
        <mxCell id="yGydTZoRVIb-HmRXxx-I-64" style="edgeStyle=orthogonalEdgeStyle;rounded=0;orthogonalLoop=1;jettySize=auto;html=1;entryX=0.5;entryY=0;entryDx=0;entryDy=0;" edge="1" parent="1" source="yGydTZoRVIb-HmRXxx-I-29" target="yGydTZoRVIb-HmRXxx-I-30">
          <mxGeometry relative="1" as="geometry" />
        </mxCell>
        <mxCell id="yGydTZoRVIb-HmRXxx-I-29" value="system(&quot;pause&quot;)" style="rounded=0;whiteSpace=wrap;html=1;" vertex="1" parent="1">
          <mxGeometry x="237.5" y="1560" width="120" height="30" as="geometry" />
        </mxCell>
        <mxCell id="yGydTZoRVIb-HmRXxx-I-30" value="Finish" style="ellipse;whiteSpace=wrap;html=1;" vertex="1" parent="1">
          <mxGeometry x="237.5" y="1610" width="120" height="40" as="geometry" />
        </mxCell>
        <mxCell id="yGydTZoRVIb-HmRXxx-I-69" value="no" style="text;html=1;align=center;verticalAlign=middle;resizable=0;points=[];autosize=1;strokeColor=none;fillColor=none;" vertex="1" parent="1">
          <mxGeometry x="345" y="690" width="30" height="20" as="geometry" />
        </mxCell>
        <mxCell id="yGydTZoRVIb-HmRXxx-I-70" value="yes" style="text;html=1;align=center;verticalAlign=middle;resizable=0;points=[];autosize=1;strokeColor=none;fillColor=none;" vertex="1" parent="1">
          <mxGeometry x="315" y="740" width="30" height="20" as="geometry" />
        </mxCell>
        <mxCell id="yGydTZoRVIb-HmRXxx-I-71" value="no" style="text;html=1;align=center;verticalAlign=middle;resizable=0;points=[];autosize=1;strokeColor=none;fillColor=none;" vertex="1" parent="1">
          <mxGeometry x="345" y="810" width="30" height="20" as="geometry" />
        </mxCell>
        <mxCell id="yGydTZoRVIb-HmRXxx-I-72" value="yes" style="text;html=1;align=center;verticalAlign=middle;resizable=0;points=[];autosize=1;strokeColor=none;fillColor=none;" vertex="1" parent="1">
          <mxGeometry x="315" y="860" width="30" height="20" as="geometry" />
        </mxCell>
        <mxCell id="yGydTZoRVIb-HmRXxx-I-73" value="no" style="text;html=1;align=center;verticalAlign=middle;resizable=0;points=[];autosize=1;strokeColor=none;fillColor=none;" vertex="1" parent="1">
          <mxGeometry x="345" y="1070" width="30" height="20" as="geometry" />
        </mxCell>
        <mxCell id="yGydTZoRVIb-HmRXxx-I-74" value="yes" style="text;html=1;align=center;verticalAlign=middle;resizable=0;points=[];autosize=1;strokeColor=none;fillColor=none;" vertex="1" parent="1">
          <mxGeometry x="315" y="1120" width="30" height="20" as="geometry" />
        </mxCell>
      </root>
    </mxGraphModel>
  </diagram>
</mxfile>
